<svg height="512" viewBox="0 0 512 512" width="512" xmlns="http://www.w3.org/2000/svg"><g><g><g><path d="m464 152v128a56 56 0 0 0 -56 56h-336a56 56 0 0 0 -56-56v-128a56 56 0 0 0 56-56h336a56 56 0 0 0 56 56z" fill="#91cc04"/><circle cx="240" cy="216" fill="#ffda44" r="72"/><g fill="#4e901e"><path d="m72 96a56 56 0 0 1 -56 56v-56z"/><path d="m464 96v56a56 56 0 0 1 -56-56z"/><path d="m72 336h-56v-56a56 56 0 0 1 56 56z"/><path d="m464 280v56h-56a56 56 0 0 1 56-56z"/></g></g><circle cx="416" cy="336" fill="#ff9811" r="80"/><circle cx="416" cy="336" fill="#ffda44" r="56"/><path d="m216 392h96v24h-96z" fill="#ff9811"/><path d="m192 368h96v24h-96z" fill="#ffda44"/><path d="m96 368h96v24h-96z" fill="#ffda44"/><g fill="#ff9811"><path d="m120 392h96v24h-96z"/><path d="m24 392h96v24h-96z"/></g></g><g><path d="m240 136a80 80 0 1 0 80 80 80.091 80.091 0 0 0 -80-80zm0 144a64 64 0 1 1 64-64 64.072 64.072 0 0 1 -64 64z"/><path d="m432 320a8 8 0 0 0 0-16h-8a8 8 0 0 0 -16 0h-8a8 8 0 0 0 -8 8v24a8 8 0 0 0 8 8h24v8h-24a8 8 0 0 0 0 16h8a8 8 0 0 0 16 0h8a8 8 0 0 0 8-8v-24a8 8 0 0 0 -8-8h-24v-8z"/><path d="m416 272a64 64 0 1 0 64 64 64.072 64.072 0 0 0 -64-64zm0 112a48 48 0 1 1 48-48 48.054 48.054 0 0 1 -48 48z"/><path d="m472 268.167v-172.167a8 8 0 0 0 -8-8h-448a8 8 0 0 0 -8 8v240a8 8 0 0 0 8 8h312.367a88 88 0 1 0 143.633-75.833zm-56-20.167a88.118 88.118 0 0 0 -87.633 80h-248.885a64.107 64.107 0 0 0 -55.482-55.482v-113.036a64.107 64.107 0 0 0 55.482-55.482h321.036a64.107 64.107 0 0 0 55.482 55.482v98.146a87.46 87.46 0 0 0 -40-9.628zm40-104.679a48.109 48.109 0 0 1 -39.321-39.321h39.321zm-392.679-39.321a48.109 48.109 0 0 1 -39.321 39.321v-39.321zm-39.321 184.679a48.109 48.109 0 0 1 39.321 39.321h-39.321zm392 119.321a72 72 0 1 1 72-72 72.081 72.081 0 0 1 -72 72z"/><path d="m312 384h-16v-16a8 8 0 0 0 -8-8h-192a8 8 0 0 0 -8 8v16h-64a8 8 0 0 0 -8 8v24a8 8 0 0 0 8 8h288a8 8 0 0 0 8-8v-24a8 8 0 0 0 -8-8zm-200 24h-80v-8h80zm-8-24v-8h80v8zm104 24h-80v-8h80zm-8-24v-8h80v8zm104 24h-80v-8h80z"/></g></g></svg>